<mxfile host="app.diagrams.net" agent="Mozilla/5.0 (Windows NT 10.0; Win64; x64) AppleWebKit/537.36 (KHTML, like Gecko) Chrome/132.0.0.0 Safari/537.36 Edg/132.0.0.0" version="26.0.6">
  <diagram name="Page-1" id="hnQItk5lSM4qVQoCpoYG">
    <mxGraphModel dx="1042" dy="1734" grid="1" gridSize="10" guides="1" tooltips="1" connect="1" arrows="1" fold="1" page="1" pageScale="1" pageWidth="827" pageHeight="1169" math="0" shadow="0">
      <root>
        <mxCell id="0" />
        <mxCell id="1" parent="0" />
        <mxCell id="YwrkMSGQTlDaJBc3fdBS-1" value="" style="rounded=0;whiteSpace=wrap;html=1;fillColor=#d5e8d4;strokeColor=#82b366;" vertex="1" parent="1">
          <mxGeometry x="180" y="-30" width="580" height="790" as="geometry" />
        </mxCell>
        <mxCell id="YwrkMSGQTlDaJBc3fdBS-2" value="Arcadia" style="text;strokeColor=none;fillColor=none;html=1;fontSize=24;fontStyle=1;verticalAlign=middle;align=center;" vertex="1" parent="1">
          <mxGeometry x="660" y="-30" width="100" height="40" as="geometry" />
        </mxCell>
        <mxCell id="YwrkMSGQTlDaJBc3fdBS-3" value="consulter" style="ellipse;whiteSpace=wrap;html=1;" vertex="1" parent="1">
          <mxGeometry x="217.5" y="570" width="70" height="55" as="geometry" />
        </mxCell>
        <mxCell id="YwrkMSGQTlDaJBc3fdBS-8" value="Administrateur" style="shape=umlActor;verticalLabelPosition=bottom;verticalAlign=top;outlineConnect=0;rotation=0;html=1;spacing=6;" vertex="1" parent="1">
          <mxGeometry x="70" width="30" height="57" as="geometry" />
        </mxCell>
        <mxCell id="YwrkMSGQTlDaJBc3fdBS-13" value="Employé" style="shape=umlActor;verticalLabelPosition=bottom;verticalAlign=top;html=1;outlineConnect=0;spacing=10;" vertex="1" parent="1">
          <mxGeometry x="70" y="200" width="30" height="60" as="geometry" />
        </mxCell>
        <mxCell id="YwrkMSGQTlDaJBc3fdBS-14" value="Vétérinaire" style="shape=umlActor;verticalLabelPosition=bottom;verticalAlign=top;html=1;outlineConnect=0;spacing=6;" vertex="1" parent="1">
          <mxGeometry x="70" y="365" width="30" height="60" as="geometry" />
        </mxCell>
        <mxCell id="YwrkMSGQTlDaJBc3fdBS-15" value="Visiteur" style="shape=umlActor;verticalLabelPosition=bottom;verticalAlign=top;html=1;outlineConnect=0;spacing=6;" vertex="1" parent="1">
          <mxGeometry x="70" y="525" width="30" height="60" as="geometry" />
        </mxCell>
        <mxCell id="YwrkMSGQTlDaJBc3fdBS-16" value="" style="endArrow=none;html=1;rounded=0;" edge="1" parent="1" source="YwrkMSGQTlDaJBc3fdBS-3" target="YwrkMSGQTlDaJBc3fdBS-15">
          <mxGeometry width="50" height="50" relative="1" as="geometry">
            <mxPoint x="390" y="360" as="sourcePoint" />
            <mxPoint x="440" y="310" as="targetPoint" />
            <Array as="points" />
          </mxGeometry>
        </mxCell>
        <mxCell id="YwrkMSGQTlDaJBc3fdBS-17" value="laisser un avis" style="ellipse;whiteSpace=wrap;html=1;" vertex="1" parent="1">
          <mxGeometry x="215" y="510" width="75" height="50" as="geometry" />
        </mxCell>
        <mxCell id="YwrkMSGQTlDaJBc3fdBS-18" value="" style="endArrow=none;html=1;rounded=0;entryX=1;entryY=0.3333333333333333;entryDx=0;entryDy=0;entryPerimeter=0;" edge="1" parent="1" source="YwrkMSGQTlDaJBc3fdBS-17" target="YwrkMSGQTlDaJBc3fdBS-15">
          <mxGeometry width="50" height="50" relative="1" as="geometry">
            <mxPoint x="390" y="360" as="sourcePoint" />
            <mxPoint x="440" y="310" as="targetPoint" />
          </mxGeometry>
        </mxCell>
        <mxCell id="YwrkMSGQTlDaJBc3fdBS-19" value="contacter le zoo" style="ellipse;whiteSpace=wrap;html=1;" vertex="1" parent="1">
          <mxGeometry x="212.5" y="450" width="80" height="50" as="geometry" />
        </mxCell>
        <mxCell id="YwrkMSGQTlDaJBc3fdBS-20" value="" style="endArrow=none;html=1;rounded=0;" edge="1" parent="1" source="YwrkMSGQTlDaJBc3fdBS-19">
          <mxGeometry width="50" height="50" relative="1" as="geometry">
            <mxPoint x="390" y="360" as="sourcePoint" />
            <mxPoint x="110" y="530" as="targetPoint" />
          </mxGeometry>
        </mxCell>
        <mxCell id="YwrkMSGQTlDaJBc3fdBS-21" value="Gerer les compte" style="ellipse;whiteSpace=wrap;html=1;" vertex="1" parent="1">
          <mxGeometry x="369" y="-20" width="90" height="50" as="geometry" />
        </mxCell>
        <mxCell id="YwrkMSGQTlDaJBc3fdBS-22" value="" style="endArrow=none;html=1;rounded=0;" edge="1" parent="1" source="YwrkMSGQTlDaJBc3fdBS-21">
          <mxGeometry width="50" height="50" relative="1" as="geometry">
            <mxPoint x="390" y="360" as="sourcePoint" />
            <mxPoint x="120" y="20" as="targetPoint" />
          </mxGeometry>
        </mxCell>
        <mxCell id="YwrkMSGQTlDaJBc3fdBS-28" value="connexion" style="ellipse;whiteSpace=wrap;html=1;" vertex="1" parent="1">
          <mxGeometry x="360" y="250" width="90" height="50" as="geometry" />
        </mxCell>
        <mxCell id="YwrkMSGQTlDaJBc3fdBS-29" value="" style="endArrow=none;html=1;rounded=0;exitX=0;exitY=0.4;exitDx=0;exitDy=0;exitPerimeter=0;" edge="1" parent="1" source="YwrkMSGQTlDaJBc3fdBS-28">
          <mxGeometry width="50" height="50" relative="1" as="geometry">
            <mxPoint x="390" y="260" as="sourcePoint" />
            <mxPoint x="110" y="240" as="targetPoint" />
          </mxGeometry>
        </mxCell>
        <mxCell id="YwrkMSGQTlDaJBc3fdBS-30" value="" style="endArrow=none;html=1;rounded=0;exitX=0.298;exitY=0.076;exitDx=0;exitDy=0;exitPerimeter=0;" edge="1" parent="1" source="YwrkMSGQTlDaJBc3fdBS-28">
          <mxGeometry width="50" height="50" relative="1" as="geometry">
            <mxPoint x="380" y="250" as="sourcePoint" />
            <mxPoint x="120" y="40" as="targetPoint" />
          </mxGeometry>
        </mxCell>
        <mxCell id="YwrkMSGQTlDaJBc3fdBS-31" value="" style="endArrow=none;html=1;rounded=0;entryX=0.093;entryY=0.7;entryDx=0;entryDy=0;entryPerimeter=0;" edge="1" parent="1" target="YwrkMSGQTlDaJBc3fdBS-28">
          <mxGeometry width="50" height="50" relative="1" as="geometry">
            <mxPoint x="120" y="390" as="sourcePoint" />
            <mxPoint x="440" y="310" as="targetPoint" />
          </mxGeometry>
        </mxCell>
        <mxCell id="YwrkMSGQTlDaJBc3fdBS-32" value="valider les avis" style="ellipse;whiteSpace=wrap;html=1;" vertex="1" parent="1">
          <mxGeometry x="570" y="230" width="90" height="60" as="geometry" />
        </mxCell>
        <mxCell id="YwrkMSGQTlDaJBc3fdBS-33" value="" style="endArrow=none;dashed=1;html=1;dashPattern=1 3;strokeWidth=2;rounded=0;entryX=0;entryY=0.5;entryDx=0;entryDy=0;exitX=1;exitY=0.5;exitDx=0;exitDy=0;" edge="1" parent="1" source="YwrkMSGQTlDaJBc3fdBS-28" target="YwrkMSGQTlDaJBc3fdBS-32">
          <mxGeometry width="50" height="50" relative="1" as="geometry">
            <mxPoint x="390" y="460" as="sourcePoint" />
            <mxPoint x="440" y="410" as="targetPoint" />
          </mxGeometry>
        </mxCell>
        <mxCell id="YwrkMSGQTlDaJBc3fdBS-34" value="Mise a jour de l&#39;habitat" style="ellipse;whiteSpace=wrap;html=1;" vertex="1" parent="1">
          <mxGeometry x="360" y="40" width="99" height="50" as="geometry" />
        </mxCell>
        <mxCell id="YwrkMSGQTlDaJBc3fdBS-35" value="" style="endArrow=none;html=1;rounded=0;entryX=0;entryY=0.5;entryDx=0;entryDy=0;" edge="1" parent="1" target="YwrkMSGQTlDaJBc3fdBS-34">
          <mxGeometry width="50" height="50" relative="1" as="geometry">
            <mxPoint x="120" y="30" as="sourcePoint" />
            <mxPoint x="440" y="210" as="targetPoint" />
          </mxGeometry>
        </mxCell>
        <mxCell id="YwrkMSGQTlDaJBc3fdBS-36" value="modifier les services" style="ellipse;whiteSpace=wrap;html=1;" vertex="1" parent="1">
          <mxGeometry x="361.5" y="150" width="105" height="50" as="geometry" />
        </mxCell>
        <mxCell id="YwrkMSGQTlDaJBc3fdBS-37" value="" style="endArrow=none;html=1;rounded=0;entryX=0;entryY=0.5;entryDx=0;entryDy=0;" edge="1" parent="1" target="YwrkMSGQTlDaJBc3fdBS-36">
          <mxGeometry width="50" height="50" relative="1" as="geometry">
            <mxPoint x="110" y="230" as="sourcePoint" />
            <mxPoint x="440" y="210" as="targetPoint" />
          </mxGeometry>
        </mxCell>
        <mxCell id="YwrkMSGQTlDaJBc3fdBS-38" value="" style="endArrow=none;html=1;rounded=0;entryX=0.081;entryY=0.4;entryDx=0;entryDy=0;entryPerimeter=0;" edge="1" parent="1" target="YwrkMSGQTlDaJBc3fdBS-36">
          <mxGeometry width="50" height="50" relative="1" as="geometry">
            <mxPoint x="120" y="40" as="sourcePoint" />
            <mxPoint x="360" y="170" as="targetPoint" />
          </mxGeometry>
        </mxCell>
        <mxCell id="YwrkMSGQTlDaJBc3fdBS-39" value="rediger compte rendus" style="ellipse;whiteSpace=wrap;html=1;" vertex="1" parent="1">
          <mxGeometry x="355.75" y="310" width="98.5" height="55" as="geometry" />
        </mxCell>
        <mxCell id="YwrkMSGQTlDaJBc3fdBS-40" value="" style="endArrow=none;html=1;rounded=0;entryX=0;entryY=0.5;entryDx=0;entryDy=0;" edge="1" parent="1" target="YwrkMSGQTlDaJBc3fdBS-39">
          <mxGeometry width="50" height="50" relative="1" as="geometry">
            <mxPoint x="130" y="400" as="sourcePoint" />
            <mxPoint x="440" y="210" as="targetPoint" />
            <Array as="points">
              <mxPoint x="150" y="400" />
            </Array>
          </mxGeometry>
        </mxCell>
        <mxCell id="YwrkMSGQTlDaJBc3fdBS-41" value="commenter l&#39;habitat" style="ellipse;whiteSpace=wrap;html=1;" vertex="1" parent="1">
          <mxGeometry x="364" y="370" width="91" height="50" as="geometry" />
        </mxCell>
        <mxCell id="YwrkMSGQTlDaJBc3fdBS-43" value="" style="endArrow=none;html=1;rounded=0;entryX=0;entryY=0.5;entryDx=0;entryDy=0;" edge="1" parent="1" target="YwrkMSGQTlDaJBc3fdBS-41">
          <mxGeometry width="50" height="50" relative="1" as="geometry">
            <mxPoint x="120" y="400" as="sourcePoint" />
            <mxPoint x="440" y="210" as="targetPoint" />
          </mxGeometry>
        </mxCell>
      </root>
    </mxGraphModel>
  </diagram>
</mxfile>
